<?xml version="1.0" standalone="no"?>
<!DOCTYPE svg PUBLIC "-//W3C//DTD SVG 20010904//EN"
 "http://www.w3.org/TR/2001/REC-SVG-20010904/DTD/svg10.dtd">
<svg version="1.0" xmlns="http://www.w3.org/2000/svg"
 width="351.000000pt" height="351.000000pt" viewBox="0 0 351.000000 351.000000"
 preserveAspectRatio="xMidYMid meet">

<g transform="translate(0.000000,351.000000) scale(0.100000,-0.100000)"
fill="#000000" stroke="none">
<path d="M1748 3013 c7 -3 16 -2 19 1 4 3 -2 6 -13 5 -11 0 -14 -3 -6 -6z"/>
<path d="M1878 3003 c7 -3 16 -2 19 1 4 3 -2 6 -13 5 -11 0 -14 -3 -6 -6z"/>
<path d="M2330 2876 c0 -2 16 -13 36 -25 19 -12 32 -16 29 -11 -7 11 -65 43
-65 36z"/>
<path d="M1167 2859 c7 -7 15 -10 18 -7 3 3 -2 9 -12 12 -14 6 -15 5 -6 -5z"/>
<path d="M1125 2840 c-3 -6 1 -7 9 -4 18 7 21 14 7 14 -6 0 -13 -4 -16 -10z"/>
<path d="M1083 2823 c-10 -10 -13 -14 -6 -10 6 5 16 6 21 3 5 -3 9 1 9 9 0 19
-1 19 -24 -2z"/>
<path d="M2420 2826 c0 -3 9 -10 20 -16 11 -6 20 -8 20 -6 0 3 -9 10 -20 16
-11 6 -20 8 -20 6z"/>
<path d="M1700 2812 c-128 -7 -335 -59 -397 -99 -12 -8 -28 -11 -34 -7 -8 4
-9 3 -5 -4 9 -14 1 -15 -23 -3 -13 7 -18 6 -18 -4 0 -7 7 -11 16 -8 13 4 13 3
2 -5 -8 -6 -21 -8 -29 -4 -9 3 -13 1 -9 -5 4 -6 -10 -18 -34 -27 -25 -10 -37
-20 -33 -28 5 -7 2 -9 -8 -6 -9 4 -15 0 -15 -8 0 -8 2 -14 3 -14 2 0 34 20 71
44 94 60 136 80 240 114 132 44 222 55 386 50 78 -2 124 -1 102 3 -52 9 -158
15 -215 11z"/>
<path d="M2499 2773 l34 -30 -24 -16 c-13 -10 -18 -17 -12 -17 6 0 16 7 23 15
18 21 35 19 19 -2 -13 -16 -12 -17 4 -4 9 7 17 12 18 10 7 -34 6 -45 -2 -56
-8 -9 -6 -11 10 -8 11 2 23 -1 27 -7 4 -7 9 -6 15 3 4 7 11 10 16 6 4 -5 1
-13 -7 -18 -12 -9 -12 -10 3 -5 10 3 25 -2 36 -13 19 -19 19 -20 -2 -37 -12
-10 -16 -12 -9 -4 15 17 16 34 2 25 -6 -4 -9 -1 -8 7 2 7 -4 12 -14 10 -9 -1
-19 2 -23 8 -3 5 -11 10 -16 10 -6 0 -7 -4 -4 -10 3 -5 -1 -10 -9 -10 -9 0
-16 5 -16 10 0 6 -9 10 -19 10 -11 0 -22 4 -25 9 -9 14 -108 13 -103 -2 2 -6
16 -11 31 -10 19 1 26 -3 27 -18 1 -10 2 -25 3 -31 1 -7 -2 -19 -7 -25 -6 -9
-6 -13 2 -13 6 0 11 -5 11 -11 0 -8 -5 -8 -15 1 -11 9 -12 16 -5 25 10 12 4
25 -12 25 -5 0 -6 -5 -3 -10 4 -6 -5 -5 -19 2 -14 6 -26 15 -26 20 0 16 -5 23
-34 50 -25 23 -31 25 -40 12 -12 -16 -50 -9 -40 8 3 5 12 7 18 5 7 -3 13 1 13
8 0 11 -6 11 -29 -1 -16 -8 -28 -10 -28 -4 0 5 -6 10 -13 10 -7 0 -29 9 -50
20 -20 11 -45 20 -54 19 -15 -1 -15 -2 2 -7 24 -8 146 -71 161 -83 6 -5 14 -6
17 -2 4 3 7 2 7 -4 0 -6 24 -26 53 -45 28 -19 77 -58 108 -86 31 -28 60 -48
64 -44 5 4 5 2 2 -5 -4 -6 9 -30 29 -54 157 -188 244 -430 244 -679 0 -480
-321 -903 -785 -1035 -549 -157 -1132 160 -1314 715 -112 339 -28 743 208
1012 25 28 39 52 35 61 -3 8 -1 18 5 22 7 3 8 0 5 -9 -6 -16 11 -23 18 -8 2 4
25 26 52 50 50 43 66 72 40 72 -8 0 -11 -7 -8 -17 5 -15 4 -16 -5 -3 -9 12
-13 13 -20 2 -7 -11 -9 -11 -14 1 -7 20 16 39 37 31 21 -8 49 15 41 34 -4 12
-3 13 10 2 12 -10 18 -10 30 0 15 12 12 30 -5 30 -5 0 -7 -7 -4 -15 4 -8 1
-15 -5 -15 -6 0 -11 5 -11 11 0 9 -22 10 -76 6 -72 -7 -104 -21 -104 -46 0
-13 -17 -14 -25 -2 -5 9 -21 9 -52 -1 -6 -1 -11 2 -11 7 0 6 4 9 9 8 4 -2 6 4
3 12 -4 9 0 15 9 15 9 0 22 9 30 21 9 12 18 16 21 10 4 -5 -5 -18 -19 -27 -13
-9 -22 -21 -18 -26 3 -6 14 -1 24 13 10 13 19 19 19 13 0 -5 -5 -15 -11 -21
-8 -8 -7 -13 2 -18 8 -5 10 -4 5 4 -4 6 0 14 9 17 12 5 13 9 4 20 -8 10 -8 14
0 14 6 0 11 8 11 18 0 14 -2 15 -10 2 -9 -14 -14 -7 -11 15 1 6 -8 -1 -20 -15
-12 -14 -25 -25 -30 -25 -15 0 -130 -125 -124 -135 3 -5 0 -12 -6 -16 -8 -5
-9 -3 -4 6 5 8 4 11 -3 6 -23 -14 -121 -164 -164 -251 -97 -193 -132 -347
-131 -575 0 -121 5 -178 22 -259 95 -450 417 -810 854 -956 140 -47 258 -66
412 -66 420 -2 796 187 1048 525 232 314 308 766 191 1136 -49 155 -179 401
-204 385 -5 -3 -7 0 -5 7 3 8 -6 25 -20 38 -14 13 -25 20 -25 16 0 -4 -12 2
-26 13 -24 19 -51 20 -40 2 3 -3 -4 -7 -14 -7 -17 0 -17 2 3 21 21 19 23 19
41 3 11 -10 22 -15 25 -13 8 9 -122 135 -132 128 -5 -3 -3 -10 4 -15 11 -8 11
-9 -1 -5 -8 2 -15 11 -15 19 0 21 -17 39 -72 77 -45 30 -46 31 -14 4z m-134
-123 c10 -11 15 -23 11 -27 -6 -6 -46 30 -46 42 0 11 18 4 35 -15z m-1499 -42
c15 -19 16 -20 2 -9 -17 12 -23 9 -19 -12 1 -5 -3 -6 -8 -3 -5 4 -12 2 -16 -4
-3 -5 -1 -10 6 -10 7 0 10 -2 7 -5 -3 -3 -13 -2 -22 1 -16 6 -15 9 8 29 14 12
23 25 19 29 -3 3 -4 6 -1 6 3 0 13 -10 24 -22z m9 -48 c-3 -5 -11 -10 -16 -10
-6 0 -7 5 -4 10 3 6 11 10 16 10 6 0 7 -4 4 -10z m140 -19 c3 -5 2 -12 -3 -15
-5 -3 -9 1 -9 9 0 17 3 19 12 6z m1508 -20 c19 -21 24 -32 16 -37 -7 -4 -10
-3 -7 2 3 5 -3 17 -14 27 -10 9 -18 14 -18 11 0 -3 -5 -2 -10 1 -6 4 -8 11 -5
16 8 12 6 13 38 -20z m82 -71 c10 -11 16 -20 13 -20 -3 0 -13 9 -23 20 -10 11
-16 20 -13 20 3 0 13 -9 23 -20z"/>
<path d="M1022 2785 c4 -4 3 -14 -3 -22 -14 -16 -33 -18 -23 -1 5 7 3 8 -6 3
-10 -6 -10 -10 3 -20 11 -8 13 -15 6 -22 -6 -6 -2 -9 12 -8 12 1 23 9 25 18 1
11 -3 14 -14 10 -15 -6 -15 -4 1 14 15 17 16 23 5 29 -7 4 -10 4 -6 -1z"/>
<path d="M2020 2771 c36 -10 74 -22 85 -27 18 -7 18 -6 5 7 -8 9 -31 18 -50
22 -93 16 -100 16 -40 -2z"/>
<path d="M1283 2760 c2 -8 12 -16 23 -17 13 -2 15 -1 4 4 -8 3 -19 11 -23 17
-6 7 -7 6 -4 -4z"/>
<path d="M1120 2700 c0 -5 7 -7 15 -4 8 4 15 8 15 10 0 2 -7 4 -15 4 -8 0 -15
-4 -15 -10z"/>
<path d="M1180 2700 c8 -5 20 -10 25 -10 6 0 3 5 -5 10 -8 5 -19 10 -25 10 -5
0 -3 -5 5 -10z"/>
<path d="M2415 2621 c-6 -11 13 -26 22 -17 4 3 1 6 -6 6 -7 0 -9 5 -6 10 3 6
4 10 1 10 -3 0 -7 -4 -11 -9z"/>
<path d="M2450 2621 c0 -6 4 -13 10 -16 6 -3 7 1 4 9 -7 18 -14 21 -14 7z"/>
<path d="M1055 2610 c-3 -6 1 -7 9 -4 18 7 21 14 7 14 -6 0 -13 -4 -16 -10z"/>
<path d="M1690 1946 c-25 -78 -142 -145 -231 -133 -21 3 -39 1 -39 -4 0 -15
97 -10 142 8 66 25 108 61 130 110 11 25 17 47 15 50 -3 2 -10 -12 -17 -31z"/>
<path d="M1344 1935 c-9 -13 -14 -28 -12 -33 1 -5 10 6 19 24 19 40 16 44 -7
9z"/>
<path d="M2577 1905 c3 -22 7 -42 9 -44 8 -9 2 45 -6 64 -7 14 -8 8 -3 -20z"/>
<path d="M2276 1907 c3 -10 9 -15 12 -12 3 3 0 11 -7 18 -10 9 -11 8 -5 -6z"/>
<path d="M1613 1885 c0 -8 4 -12 9 -9 5 3 6 10 3 15 -9 13 -12 11 -12 -6z"/>
<path d="M2465 1879 c-4 -6 -14 -8 -23 -4 -11 4 -8 -3 7 -19 29 -30 28 -30 28
-11 0 8 -4 12 -9 9 -12 -8 -10 10 4 24 7 7 9 12 6 12 -4 0 -10 -5 -13 -11z"/>
<path d="M1316 1858 c-3 -13 -5 -34 -5 -48 1 -15 5 -7 10 19 9 47 6 68 -5 29z"/>
<path d="M2290 1875 c0 -6 8 -22 17 -35 24 -34 25 -50 2 -50 -11 0 -19 -7 -19
-17 0 -12 -8 -8 -28 15 l-28 31 -30 -30 -31 -30 -164 1 c-187 1 -263 5 -279
15 -15 9 -62 -23 -54 -37 4 -6 3 -8 -3 -5 -5 3 -34 -3 -64 -15 -39 -15 -85
-22 -166 -26 l-113 -5 -11 -36 c-6 -20 -13 -73 -16 -118 -8 -126 12 -179 105
-272 91 -92 114 -135 120 -226 4 -68 -6 -108 -53 -217 -7 -17 3 -18 133 -18
l140 0 7 28 c19 78 127 207 210 250 45 23 65 26 205 32 85 4 167 12 181 18 14
5 38 25 53 43 30 35 29 30 10 151 -5 30 -2 38 15 47 23 13 27 41 9 59 -9 9 -9
15 0 24 18 18 14 49 -8 73 -27 29 -19 45 35 74 33 17 45 30 45 46 0 21 -25 52
-39 48 -3 -1 -8 1 -11 4 -3 4 2 3 10 -2 8 -4 2 6 -14 23 -34 37 -46 40 -41 12
2 -11 0 -18 -5 -15 -5 3 -7 14 -5 25 3 14 -10 31 -41 57 -25 21 -52 49 -59 63
-8 14 -14 20 -15 15z m61 -88 c-5 -5 -7 -17 -3 -25 5 -14 4 -15 -10 -2 -10 9
-12 17 -6 21 6 4 8 12 4 18 -5 7 -1 9 9 5 11 -5 13 -10 6 -17z m29 -22 c7 -9
8 -15 2 -15 -5 0 -12 7 -16 15 -3 8 -4 15 -2 15 2 0 9 -7 16 -15z m-625 -15
c3 -5 1 -10 -4 -10 -6 0 -11 5 -11 10 0 6 2 10 4 10 3 0 8 -4 11 -10z m-85
-44 c-4 -4 -16 -4 -26 2 -16 9 -14 10 8 9 15 -1 23 -6 18 -11z m-166 -82 c34
-34 9 -94 -39 -94 -24 0 -55 33 -55 57 0 20 38 53 59 53 11 0 27 -7 35 -16z
m182 -12 c17 -11 22 -35 12 -54 -10 -21 -39 -23 -56 -6 -32 32 7 85 44 60z
m184 -37 c0 -27 -17 -36 -42 -23 -23 11 -23 34 -1 46 24 14 43 4 43 -23z m124
-11 c21 -8 21 -43 0 -51 -23 -9 -48 25 -33 44 13 15 12 15 33 7z m124 -72 c3
-16 -2 -22 -17 -22 -24 0 -35 15 -27 36 9 23 40 13 44 -14z m-318 -17 c17 -20
5 -45 -20 -45 -23 0 -35 22 -26 45 7 19 30 19 46 0z m408 -23 c2 -14 -2 -22
-12 -22 -19 0 -29 17 -22 36 8 22 30 12 34 -14z m-594 2 c9 -8 16 -22 16 -30
0 -55 -66 -75 -96 -29 -15 23 -15 27 0 50 19 29 56 33 80 9z m321 -9 c0 -13
-8 -21 -22 -23 -17 -3 -23 2 -23 16 0 10 3 22 7 26 13 13 38 1 38 -19z m353
-3 c2 -7 -5 -12 -17 -12 -14 0 -19 5 -14 15 6 17 25 15 31 -3z m-248 -38 c0
-8 -7 -14 -15 -14 -15 0 -21 21 -9 33 10 9 24 -2 24 -19z m236 -42 c-4 -3 -12
0 -19 7 -9 9 -9 14 3 21 11 7 16 5 18 -6 2 -9 1 -18 -2 -22z m-71 -7 c0 -28
-29 -25 -33 3 -3 19 0 23 15 20 10 -2 18 -12 18 -23z m-445 -35 c11 -11 20
-27 20 -35 0 -20 -36 -55 -57 -55 -23 0 -53 30 -53 53 0 26 28 57 52 57 10 0
27 -9 38 -20z m355 -10 c0 -18 -6 -26 -21 -28 -23 -3 -37 18 -27 44 10 25 48
13 48 -16z m-150 -14 c23 -35 5 -76 -34 -76 -30 0 -61 22 -61 43 0 7 7 23 16
35 20 29 59 29 79 -2z"/>
<path d="M1760 1835 c-7 -9 -11 -17 -9 -20 3 -2 10 5 17 15 14 24 10 26 -8 5z"/>
<path d="M2590 1840 c-1 -8 -2 -19 -1 -23 2 -12 -26 -37 -33 -30 -3 3 -1 12 5
19 7 8 7 14 -1 19 -6 4 -9 1 -8 -6 5 -19 -18 -21 -36 -3 -9 9 -19 14 -22 12
-2 -3 21 -24 52 -47 30 -24 56 -41 57 -39 1 1 -1 28 -4 58 -3 30 -7 48 -9 40z"/>
<path d="M1250 1821 c0 -4 14 -23 30 -41 17 -18 30 -29 30 -23 0 6 -13 25 -30
41 -16 17 -30 27 -30 23z"/>
<path d="M1118 1773 c6 -2 10 -9 7 -14 -4 -5 1 -6 10 -3 11 5 14 2 9 -10 -3
-9 -10 -13 -15 -10 -11 7 -11 -7 0 -24 6 -10 10 -6 15 15 7 27 8 27 22 9 17
-24 19 -45 2 -28 -10 10 -15 7 -25 -10 -7 -13 -12 -17 -13 -10 0 15 -80 17
-80 1 0 -5 -5 -7 -11 -3 -8 4 -8 0 0 -15 8 -14 8 -21 1 -21 -21 0 -9 -17 28
-37 36 -21 159 -49 169 -39 3 2 -5 35 -17 71 -24 71 -71 136 -99 134 -10 0
-11 -2 -3 -6z m-44 -104 c-3 -6 6 -8 23 -4 l28 5 -27 -11 c-33 -13 -37 -30 -7
-26 14 1 23 -4 24 -15 3 -16 1 -17 -28 -2 -42 22 -44 24 -27 34 10 6 11 10 3
10 -7 0 -10 7 -7 15 4 8 10 12 15 9 5 -3 7 -10 3 -15z m126 5 c0 -8 -5 -12
-10 -9 -6 4 -8 11 -5 16 9 14 15 11 15 -7z"/>
<path d="M987 1712 c1 -8 3 -16 3 -18 0 -3 5 -2 12 2 7 5 9 2 6 -8 -7 -18 8
-46 19 -35 4 5 2 11 -4 15 -8 5 -9 13 -3 22 6 8 10 20 10 25 0 6 -5 3 -10 -5
-7 -11 -10 -11 -10 -2 0 7 -4 11 -9 8 -5 -4 -11 -3 -14 1 -2 5 -2 2 0 -5z"/>
<path d="M1190 1410 c-30 -9 -66 -22 -80 -29 -40 -21 -79 -70 -85 -110 -4 -20
-9 -49 -12 -65 -6 -32 -11 -31 88 -5 44 11 85 42 103 78 13 25 48 143 43 147
-1 0 -27 -7 -57 -16z"/>
<path d="M1295 1209 c-14 -38 -22 -114 -15 -144 13 -60 60 -110 125 -135 l25
-10 0 84 c0 80 -2 87 -32 127 -44 57 -96 96 -103 78z"/>
<path d="M5 27 c-4 -10 -5 -21 -1 -24 10 -10 18 4 13 24 -4 17 -4 17 -12 0z"/>
</g>
</svg>
